<svg id="图层_1" data-name="图层 1" xmlns="http://www.w3.org/2000/svg" xmlns:xlink="http://www.w3.org/1999/xlink" viewBox="0 0 176 50"><defs><style>.cls-1{fill:#277538;}.cls-2{fill:url(#未命名的渐变_517);}.cls-3,.cls-4{fill:#fff;}.cls-3{fill-rule:evenodd;}</style><linearGradient id="未命名的渐变_517" x1="40.39" y1="17.03" x2="19.41" y2="42.5" gradientUnits="userSpaceOnUse"><stop offset="0" stop-color="#15ac5b"/><stop offset="0.16" stop-color="#13a460"/><stop offset="0.41" stop-color="#0f8f6c"/><stop offset="0.7" stop-color="#086b81"/><stop offset="1" stop-color="#004299"/></linearGradient></defs><title>logo</title><line class="cls-1" x1="110.91" y1="16.94" x2="110.9" y2="17.03"/><path class="cls-1" d="M123.56,18.49V17H109.39c0-.08.09-2.21.09-2.21h-1.62l-.08,2,0,.24H104.1v1.46h3.5c.12,2-1.49,7.44-4.15,11.18l1.07,1.28c2.71-2.94,3.59-7.63,3.6-7.66l0,14h1.46V30h12v4.57c0,.09-.12,1-1.78,1.55l.42,1.39c2.79-.85,2.82-2.85,2.82-2.93V22.09a1.21,1.21,0,0,0-1.23-1.17H109c.13-.66.27-2.43.27-2.43Zm-2,16.14s0,0,0,0Zm-12-6V26.08h12v2.51Zm12-6.21v2.25h-12V22.37Z"/><path class="cls-1" d="M74,20.19,73.39,19a6.71,6.71,0,0,1-3.6.7H61.84v1.4h7.94A8.06,8.06,0,0,0,74,20.19Z"/><path class="cls-1" d="M74.61,35.4H68.79V32.92h8v-1.4h-8V29h8.67v-1.4H68.79v-3h7.37a1.14,1.14,0,0,0,1.14-1.14V17.26a1.14,1.14,0,0,0-1.14-1.14H61.85v1.4h14v5.65H60.22V16.12h-1.4v10a4.72,4.72,0,0,1-1.15,3.09l1,1a4.76,4.76,0,0,0,.85-1.2h7.88v2.56h-8v1.4h8V35.4H57.73v1.4H74.61a8.06,8.06,0,0,0,4.26-.86l-.65-1.24A6.71,6.71,0,0,1,74.61,35.4ZM60,27.56a6.29,6.29,0,0,0,.19-1.48v-1.5h7.17v3Z"/><path class="cls-1" d="M100.52,34.71a6.71,6.71,0,0,1-3.6.7h-5V29.82h8.46v-1.4H82.07v1.4h8.46V35.4H81.6v1.4H96.92a8.06,8.06,0,0,0,4.26-.86Z"/><path class="cls-1" d="M92.11,18.22h7V20h1.4V18a1.14,1.14,0,0,0-1.14-1.14H92.11a.18.18,0,0,1-.18-.18V15.35h-1.4v1.29A1.59,1.59,0,0,0,92.11,18.22Z"/><path class="cls-1" d="M83.39,18.22h6.06v-1.4H83.13A1.14,1.14,0,0,0,82,18v2h1.4Z"/><path class="cls-1" d="M88.12,23.81a10.28,10.28,0,0,1,6.22,0l5.72,2.13.49-1.31-5.74-2.13h0a11.68,11.68,0,0,0-7.1,0l-5.77,2.14.49,1.31Z"/><polygon class="cls-1" points="128.29 20.42 128.28 20.42 128.28 20.42 128.29 20.42"/><path class="cls-1" d="M140.31,25.55h0a12.77,12.77,0,0,0-1.36-.35l5.75-2.82a1.16,1.16,0,0,0,.64-1.32,1.22,1.22,0,0,0-1.21-.93H128.23a1.22,1.22,0,0,0-1.21.93,1.16,1.16,0,0,0,.64,1.32l5.92,2.9q-.49.11-1,.27l-6.21,2.31.53,1.41L133.1,27a11.07,11.07,0,0,1,6.7,0L146,29.26l.53-1.41Zm2.37-3.9-6.51,3.19-6.51-3.19Z"/><path class="cls-1" d="M137.23,17.81h7.42v1.88h1.55V17.51a1.25,1.25,0,0,0-1.24-1.24h-7.72a.17.17,0,0,1-.17-.17V14.71h-1.55v1.38A1.72,1.72,0,0,0,137.23,17.81Z"/><path class="cls-1" d="M127.75,37.58h16.09a1.27,1.27,0,0,0,1.29-1.24V29.46H127.75Zm1.6-6.58h14.17v5H129.35Z"/><path class="cls-1" d="M127.92,17.81h6.46V16.26h-6.76a1.25,1.25,0,0,0-1.24,1.24v2.18h1.55Z"/><ellipse class="cls-2" cx="33.11" cy="25.88" rx="17.11" ry="16.88"/><polygon class="cls-3" points="18.03 29.96 18.11 29.98 19.21 27.74 19.14 27.72 18.03 29.96"/><polygon class="cls-3" points="19.19 22.23 19.13 22.27 21.4 26.8 21.46 26.75 19.19 22.23"/><polygon class="cls-3" points="17.92 29.85 18 29.83 17.6 23.36 17.52 23.38 17.92 29.85"/><polygon class="cls-3" points="17.58 23.25 17.52 23.28 19.11 27.76 19.17 27.73 17.58 23.25"/><polygon class="cls-3" points="19.21 22.39 19.14 22.4 19.14 27.77 19.21 27.75 19.21 22.39"/><polygon class="cls-3" points="17.5 23.33 17.56 23.38 19.17 22.23 19.12 22.18 17.5 23.33"/><polygon class="cls-3" points="20.5 16.76 20.43 16.75 17.51 23.45 17.58 23.46 20.5 16.76"/><polygon class="cls-3" points="20.46 16.81 20.38 16.81 19.05 22.27 19.13 22.27 20.46 16.81"/><rect class="cls-4" x="40.01" y="32.15" width="0.07" height="7.1" transform="translate(-10.22 54.43) rotate(-62.15)"/><polygon class="cls-3" points="36.96 34.05 36.89 34.06 37.68 40.09 37.76 40.08 36.96 34.05"/><polygon class="cls-3" points="43.22 37.3 43.2 37.23 37.69 39.97 37.71 40.04 43.22 37.3"/><polygon class="cls-3" points="36.9 34.2 36.84 34.17 30.85 41.26 30.92 41.29 36.9 34.2"/><polygon class="cls-3" points="36.92 34.18 36.87 34.13 28.69 38.51 28.74 38.56 36.92 34.18"/><polygon class="cls-3" points="37.85 40.01 37.81 39.94 30.69 41.36 30.72 41.43 37.85 40.01"/><polygon class="cls-3" points="30.95 41.51 30.99 41.44 28.33 38.63 28.29 38.69 30.95 41.51"/><polygon class="cls-3" points="30.77 41.43 30.78 41.36 22.65 37.48 22.64 37.55 30.77 41.43"/><polygon class="cls-3" points="26.13 37.77 26.17 37.71 21.53 32.63 21.5 32.7 26.13 37.77"/><polygon class="cls-3" points="26.06 37.81 26.05 37.73 22.43 37.42 22.43 37.49 26.06 37.81"/><polygon class="cls-3" points="28.53 38.69 28.54 38.62 26.11 37.66 26.09 37.73 28.53 38.69"/><polygon class="cls-3" points="28.41 38.34 28.49 38.34 30.08 29.21 30 29.22 28.41 38.34"/><polygon class="cls-3" points="26.86 36.21 26.88 36.14 21.43 32.48 21.42 32.56 26.86 36.21"/><polygon class="cls-3" points="28.5 38.6 28.55 38.55 26.93 36.32 26.89 36.38 28.5 38.6"/><polygon class="cls-3" points="26.03 37.66 26.1 37.65 26.75 36.04 26.68 36.06 26.03 37.66"/><polygon class="cls-3" points="26.6 36.4 26.67 36.41 30.05 28.68 29.98 28.66 26.6 36.4"/><polygon class="cls-3" points="24.06 31 24 31.05 26.73 36.13 26.78 36.08 24.06 31"/><polygon class="cls-3" points="22.57 37.56 22.62 37.51 17.94 29.81 17.89 29.86 22.57 37.56"/><polygon class="cls-3" points="22.47 37.36 22.54 37.34 21.55 32.61 21.48 32.63 22.47 37.36"/><polygon class="cls-3" points="21.46 32.64 21.51 32.59 19.23 27.79 19.18 27.85 21.46 32.64"/><polygon class="cls-3" points="23.98 31.07 23.99 31 19.3 27.85 19.29 27.93 23.98 31.07"/><polygon class="cls-3" points="30.09 28.7 30.04 28.65 24.05 31.17 24.1 31.23 30.09 28.7"/><polygon class="cls-3" points="21.5 26.82 21.45 26.88 24.12 31.18 24.18 31.13 21.5 26.82"/><polygon class="cls-3" points="30.02 28.79 30.01 28.72 21.68 26.91 21.7 26.98 30.02 28.79"/><polygon class="cls-3" points="25.12 12.42 25.05 12.39 20.43 16.94 20.5 16.97 25.12 12.42"/><polygon class="cls-3" points="23.15 21.99 23.12 21.93 19.21 22.18 19.24 22.25 23.15 21.99"/><polygon class="cls-3" points="22.94 17 22.87 16.97 19.17 22.17 19.24 22.2 22.94 17"/><polygon class="cls-3" points="22.93 16.85 22.89 16.79 20.36 16.96 20.39 17.03 22.93 16.85"/><polygon class="cls-3" points="23.31 21.66 23.24 21.66 21.54 26.78 21.61 26.78 23.31 21.66"/><polygon class="cls-3" points="29.64 28.62 29.66 28.55 23.37 22.15 23.34 22.21 29.64 28.62"/><polygon class="cls-3" points="32.45 20.65 32.42 20.59 23.52 21.81 23.55 21.87 32.45 20.65"/><polygon class="cls-3" points="28.49 12.82 28.41 12.81 23.31 21.63 23.38 21.64 28.49 12.82"/><polygon class="cls-3" points="23 16.69 22.92 16.71 23.16 22.08 23.23 22.06 23 16.69"/><polygon class="cls-3" points="28.27 12.91 28.22 12.86 23.12 16.7 23.17 16.75 28.27 12.91"/><polygon class="cls-3" points="25.23 12.38 25.15 12.36 22.93 16.93 23 16.95 25.23 12.38"/><polygon class="cls-3" points="28.63 12.75 28.57 12.8 32.47 20.59 32.53 20.55 28.63 12.75"/><polygon class="cls-3" points="37.01 11.76 37.16 11.84 32.88 20.53 32.68 20.41 37.01 11.76"/><polygon class="cls-3" points="34.11 11.65 34.17 11.68 32.59 20.57 32.52 20.54 34.11 11.65"/><polygon class="cls-3" points="31.33 10.12 31.28 10.07 25.2 12.32 25.25 12.37 31.33 10.12"/><polygon class="cls-3" points="36.43 10.52 36.4 10.45 31.2 10.11 31.22 10.18 36.43 10.52"/><polygon class="cls-3" points="41.44 12.68 41.44 12.6 36.36 10.39 36.36 10.46 41.44 12.68"/><polygon class="cls-3" points="31.48 10.14 31.42 10.09 28.45 12.71 28.52 12.76 31.48 10.14"/><polygon class="cls-3" points="25.28 12.34 25.28 12.41 28.41 12.68 28.42 12.6 25.28 12.34"/><polygon class="cls-3" points="28.41 12.68 28.43 12.75 34.08 11.56 34.07 11.49 28.41 12.68"/><rect class="cls-4" x="32.69" y="9.21" width="0.07" height="3.31" transform="translate(8.71 35.6) rotate(-64.2)"/><polygon class="cls-3" points="34.04 11.56 34.07 11.63 36.43 10.48 36.4 10.41 34.04 11.56"/><polygon class="cls-3" points="34.1 11.52 34.1 11.59 37.23 11.78 37.24 11.71 34.1 11.52"/><polygon class="cls-3" points="36.41 10.46 36.35 10.49 37.08 11.86 37.15 11.83 36.41 10.46"/><polygon class="cls-3" points="41.57 12.73 41.55 12.66 36.98 11.7 36.99 11.78 41.57 12.73"/><polygon class="cls-3" points="41.57 12.73 41.63 12.69 46.99 18.17 46.93 18.21 41.57 12.73"/><polygon class="cls-3" points="37.16 11.85 37.22 11.81 42.82 16.53 42.76 16.57 37.16 11.85"/><polygon class="cls-3" points="37.05 11.98 37.12 11.96 41.28 20.4 41.21 20.42 37.05 11.98"/><polygon class="cls-3" points="42.76 16.55 42.82 16.51 47.94 21.43 47.88 21.47 42.76 16.55"/><polygon class="cls-3" points="42.72 16.65 42.77 16.6 41.65 12.82 41.6 12.87 42.72 16.65"/><polygon class="cls-3" points="46.91 18.23 46.91 18.16 42.78 16.58 42.78 16.65 46.91 18.23"/><polygon class="cls-3" points="47.83 21.48 47.81 21.41 41.23 20.47 41.25 20.54 47.83 21.48"/><polygon class="cls-3" points="47.93 21.6 47.98 21.55 46.82 18.14 46.77 18.19 47.93 21.6"/><polygon class="cls-3" points="41.31 20.4 41.38 20.39 42.72 16.66 42.64 16.67 41.31 20.4"/><circle class="cls-4" cx="43.01" cy="37.32" r="0.39"/><circle class="cls-4" cx="36.99" cy="34.17" r="0.5"/><circle class="cls-4" cx="37.68" cy="40.06" r="0.27"/><circle class="cls-4" cx="30.74" cy="41.5" r="0.38"/><circle class="cls-4" cx="28.39" cy="38.69" r="0.49"/><circle class="cls-4" cx="26.76" cy="36.04" r="0.5"/><circle class="cls-4" cx="22.49" cy="37.39" r="0.4"/><circle class="cls-4" cx="26.08" cy="37.74" r="0.4"/><circle class="cls-4" cx="21.46" cy="32.53" r="0.4"/><circle class="cls-4" cx="17.99" cy="29.9" r="0.4"/><circle class="cls-4" cx="19.3" cy="27.78" r="0.4"/><circle class="cls-4" cx="24.13" cy="31.06" r="0.49"/><circle class="cls-4" cx="21.46" cy="26.87" r="0.5"/><circle class="cls-4" cx="32.58" cy="20.57" r="0.5"/><circle class="cls-4" cx="19.18" cy="22.28" r="0.4"/><circle class="cls-4" cx="17.64" cy="23.39" r="0.4"/><circle class="cls-4" cx="23.14" cy="21.99" r="0.65"/><circle class="cls-4" cx="29.97" cy="28.76" r="0.65"/><circle class="cls-4" cx="20.39" cy="16.9" r="0.4"/><circle class="cls-4" cx="22.9" cy="16.89" r="0.5"/><circle class="cls-4" cx="28.38" cy="12.68" r="0.49"/><circle class="cls-4" cx="25.16" cy="12.44" r="0.4"/><circle class="cls-4" cx="31.2" cy="10.09" r="0.4"/><circle class="cls-4" cx="36.31" cy="10.44" r="0.4"/><circle class="cls-4" cx="34.09" cy="11.66" r="0.4"/><circle class="cls-4" cx="37.02" cy="11.72" r="0.49"/><circle class="cls-4" cx="41.54" cy="12.78" r="0.4"/><circle class="cls-4" cx="42.73" cy="16.61" r="0.4"/><circle class="cls-4" cx="46.88" cy="18.3" r="0.4"/><circle class="cls-4" cx="47.88" cy="21.4" r="0.4"/><circle class="cls-4" cx="41.29" cy="20.44" r="0.31"/><polygon class="cls-3" points="37.13 11.76 36.97 11.84 41.25 20.53 41.45 20.41 37.13 11.76"/><polygon class="cls-3" points="41.25 20.34 41.23 20.51 48.14 21.62 48.16 21.38 41.25 20.34"/><polygon class="cls-3" points="32.11 20.55 32.13 20.73 23.3 22 23.28 21.77 32.11 20.55"/><polygon class="cls-3" points="29.61 28.64 29.73 28.52 23.49 22.1 23.33 22.27 29.61 28.64"/><polygon class="cls-3" points="29.96 29.06 30.14 29.09 28.53 38.52 28.3 38.47 29.96 29.06"/><polygon class="cls-3" points="36.65 34.19 36.73 34.34 28.3 38.87 28.21 38.65 36.65 34.19"/><polygon class="cls-3" points="36.92 33.93 36.85 34.09 43.04 37.34 43.13 37.13 36.92 33.93"/><path class="cls-3" d="M36.48,23.3l-.38.31a1.54,1.54,0,0,0-.27-.23.68.68,0,0,0-.36-.08.68.68,0,0,0-.41.11.35.35,0,0,0-.16.3A.36.36,0,0,0,35,24a1.92,1.92,0,0,0,.47.26,3.43,3.43,0,0,1,.52.27,1.33,1.33,0,0,1,.3.27,1.08,1.08,0,0,1,.18.31,1,1,0,0,1,.06.35,1,1,0,0,1-.31.73,1,1,0,0,1-.76.3,1.29,1.29,0,0,1-.77-.24,1.49,1.49,0,0,1-.51-.71l.47-.13a.84.84,0,0,0,.79.58.61.61,0,0,0,.43-.15.5.5,0,0,0,.17-.39.52.52,0,0,0-.09-.28.78.78,0,0,0-.22-.23,2.42,2.42,0,0,0-.42-.21,3.14,3.14,0,0,1-.45-.22,1.14,1.14,0,0,1-.27-.24,1,1,0,0,1-.17-.27.79.79,0,0,1-.05-.29.81.81,0,0,1,.3-.63,1.06,1.06,0,0,1,.72-.26,1.47,1.47,0,0,1,.57.12,1.18,1.18,0,0,1,.48.37Zm.53-.38h2.12v.47H38.3v3h-.47v-3H37v-.47Zm3.9-.13,1.63,3.59H42l-.4-.88H40.17l-.4.88h-.49l1.62-3.59Zm0,1.08-.55,1.23h1.11l-.56-1.23Zm2.21-1h.75a1.42,1.42,0,0,1,.91.28.87.87,0,0,1,.35.71.92.92,0,0,1-.23.61,1.26,1.26,0,0,1-.71.37l1,1.48h-.54l-1-1.42h-.11v1.42h-.47V22.92Zm.47.42v1.21q1,0,1-.61a.53.53,0,0,0-.12-.36.62.62,0,0,0-.32-.19A2.68,2.68,0,0,0,43.58,23.33Z"/><path class="cls-3" d="M37.18,31.19h-.74V29.75H35v1.44h-.74V27.7H35v1.41h1.49V27.7h.74v3.49Zm.34-1.7A1.88,1.88,0,0,1,38,28.16a1.64,1.64,0,0,1,1.26-.51,1.56,1.56,0,0,1,1.2.5,1.82,1.82,0,0,1,.46,1.28,1.86,1.86,0,0,1-.47,1.32,1.76,1.76,0,0,1-2.46,0,1.76,1.76,0,0,1-.47-1.27Zm.78,0a1.34,1.34,0,0,0,.25.83.8.8,0,0,0,.67.32.81.81,0,0,0,.68-.31,1.31,1.31,0,0,0,.24-.83,1.41,1.41,0,0,0-.24-.86.78.78,0,0,0-.67-.32.82.82,0,0,0-.69.32,1.33,1.33,0,0,0-.25.84Zm6.14,1.74V29.07c0-.2,0-.44,0-.74h0a3.82,3.82,0,0,1-.11.45l-.86,2.4H42.9L42,28.81a4.75,4.75,0,0,1-.11-.47h0q0,.44,0,.88v2h-.67V27.7h1.08l.75,2.11a2.53,2.53,0,0,1,.13.49h0c0-.19.09-.36.14-.5l.75-2.1h1.05v3.49Zm3.36,0H45.74V27.7h2v.61H46.48v.82h1.15v.61H46.48v.84H47.8Z"/></svg>