<?xml version="1.0" standalone="no"?><!DOCTYPE svg PUBLIC "-//W3C//DTD SVG 1.1//EN" "http://www.w3.org/Graphics/SVG/1.1/DTD/svg11.dtd"><svg class="icon" width="200px" height="200.00px" viewBox="0 0 1024 1024" version="1.1" xmlns="http://www.w3.org/2000/svg"><path d="M354.133333 325.973333a188.16 188.16 0 1 1 376.32 0 185.6 185.6 0 0 1-11.52 62.72h136.96V325.973333a313.6 313.6 0 0 0-627.2 0v62.72h136.96a186.453333 186.453333 0 0 1-11.52-62.72z m501.76 62.72H228.693333a125.44 125.44 0 0 0-125.44 125.44v376.32a125.44 125.44 0 0 0 125.44 125.44h627.2A125.44 125.44 0 0 0 981.333333 890.453333v-376.32a125.44 125.44 0 0 0-125.44-125.44z m-250.88 358.826667v80.213333a62.72 62.72 0 0 1-125.44 0v-79.786666a125.44 125.44 0 1 1 125.44 0z m0 0" /></svg>